name C:\Users\antoi\Documents\MyRepositories\upper-imu-dc\Results\main_tracking\Case_100\kinematics.mot
datacolumns 43
datarows 4
range 4.84000000 4.90000000
endheader 
time	clav_prot	clav_elev	scapula_abduction	scapula_elevation	scapula_upward_rot	scapula_winging	plane_elv	shoulder_elv	axial_rot	TrapeziusScapula_M/activation	TrapeziusScapula_S/activation	TrapeziusScapula_I/activation	TrapeziusClavicle_S/activation	SerratusAnterior_I/activation	SerratusAnterior_M/activation	SerratusAnterior_S/activation	Rhomboideus_S/activation	Rhomboideus_I/activation	LevatorScapulae/activation	Coracobrachialis/activation	DeltoideusClavicle_A/activation	DeltoideusScapula_P/activation	DeltoideusScapula_M/activation	LatissimusDorsi_S/activation	LatissimusDorsi_M/activation	LatissimusDorsi_I/activation	PectoralisMajorClavicle_S/activation	PectoralisMajorThorax_I/activation	PectoralisMajorThorax_M/activation	TeresMajor/activation	Infraspinatus_I/activation	Infraspinatus_S/activation	PectoralisMinor/activation	TeresMinor/activation	Subscapularis_S/activation	Subscapularis_M/activation	Subscapularis_I/activation	Supraspinatus_P/activation	Supraspinatus_A/activation	TRIlong/activation	BIC_long/activation	BIC_brevis/activation	
          4.84000000	        -21.70646241	         -4.78588280	         -5.29757493	         -6.52163054	         21.96111740	          3.34153220	         69.23215071	         68.77512089	         -9.35763195	          0.01530675	          0.01161076	          0.02018383	          0.02290902	          0.05314000	          0.05231487	          0.02993972	          0.01889843	          0.01280397	          0.01949797	          0.05783610	          0.14835346	          0.01000000	          0.08091865	          0.01462674	          0.01000002	          0.01476878	          0.08876681	          0.02758462	          0.06986232	          0.01000002	          0.05787043	          0.01942702	          0.02878152	          0.02992461	          0.02109628	          0.02102832	          0.01000494	          0.04225419	          0.03975986	          0.01000001	          0.01945638	          0.13553664	
          4.86000000	        -21.72152553	         -5.08822967	         -5.84443069	         -6.55001322	         21.06313678	          3.66961586	         68.90810441	         67.41128796	         -9.12296220	          0.01612044	          0.01228831	          0.02127777	          0.02321688	          0.05246609	          0.05028773	          0.02926845	          0.01918576	          0.01291847	          0.01927934	          0.05797665	          0.14858758	          0.01000000	          0.07849986	          0.01500011	          0.01000002	          0.01558631	          0.08870397	          0.02791659	          0.06966638	          0.01000002	          0.05311184	          0.01968782	          0.02811617	          0.02681271	          0.02212231	          0.02176699	          0.01056822	          0.04352683	          0.04125929	          0.01000000	          0.02157775	          0.13678509	
          4.88000000	        -21.76771824	         -5.37983615	         -6.41127124	         -6.57984016	         20.21157815	          3.98665011	         68.55513236	         66.05709736	         -8.88074477	          0.01695383	          0.01304963	          0.02244127	          0.02347007	          0.05171261	          0.04823654	          0.02863329	          0.01944426	          0.01301507	          0.01902914	          0.05816836	          0.14869933	          0.01000000	          0.07584953	          0.01539904	          0.01000002	          0.01640195	          0.08854070	          0.02827935	          0.06943708	          0.01000002	          0.04849401	          0.01980588	          0.02754902	          0.02396886	          0.02314816	          0.02247919	          0.01138620	          0.04474154	          0.04278998	          0.01000000	          0.02373358	          0.13783211	
          4.90000000	        -21.84181490	         -5.66151038	         -6.99386956	         -6.61178598	         19.40527897	          4.29258714	         68.17440764	         64.71638850	         -8.64195100	          0.01780480	          0.01388373	          0.02368282	          0.02366330	          0.05088028	          0.04615671	          0.02803549	          0.01967039	          0.01308933	          0.01874401	          0.05838071	          0.14862590	          0.01000000	          0.07302108	          0.01583283	          0.01000002	          0.01720709	          0.08824384	          0.02869187	          0.06915746	          0.01000002	          0.04402242	          0.01980311	          0.02709501	          0.02138232	          0.02417334	          0.02316513	          0.01232938	          0.04588702	          0.04433363	          0.01000000	          0.02590638	          0.13861112	
